<?xml version="1.0"?>
<svg xmlns="http://www.w3.org/2000/svg" height="512px" viewBox="0 0 512 512.00033" width="512px"><g><path d="m394 408.457031c-5.523438 0-10 4.476563-10 10v83.542969c0 5.523438 4.476562 10 10 10s10-4.476562 10-10v-83.542969c0-5.523437-4.476562-10-10-10zm0 0" data-original="#000000" class="active-path" data-old_color="#000000" fill="#F0756F"/><path d="m509.070312 180.921875-18.003906-18.007813c-1.394531-23.425781-20.886718-42.0625-44.65625-42.0625-24.671875 0-44.746094 20.074219-44.746094 44.746094 0 8.964844-2.710937 17.652344-7.515624 25l.074218-180.59375c0-3.011718-1.355468-5.863281-3.691406-7.761718-2.339844-1.902344-5.40625-2.648438-8.355469-2.027344-1.21875.253906-12.179687 2.722656-22.34375 10.910156-3.644531 2.9375-7.40625 6.792969-10.476562 11.730469-1.144531.054687-2.28125.300781-3.367188.75-1.183593.488281-11.808593 5.105469-20.402343 16.257812-3.238282 4.203125-6.421876 9.652344-8.472657 16.433594-1.378906.457031-2.664062 1.210937-3.75 2.242187-.453125.429688-2.375 2.320313-4.863281 5.542969-27.957031-15.757812-59.628906-24.082031-91.933594-24.082031-89.507812 0-166.886718 63.769531-183.984375 151.628906l-32.398437 166.460938c-.570313 2.933594.199218 5.964844 2.101562 8.269531 1.898438 2.304687 4.726563 3.640625 7.714844 3.640625h45.667969v39.691406c0 39.871094 32.4375 72.308594 72.308593 72.308594h64.023438v20c0 5.523438 4.476562 10 10 10s10-4.476562 10-10v-30c0-5.523438-4.476562-10-10-10h-74.023438c-28.84375 0-52.308593-23.464844-52.308593-52.308594v-49.691406c0-5.519531-4.476563-10-10-10h-43.535157l30.082032-154.550781c15.273437-78.484375 84.394531-135.449219 164.351562-135.449219 2.230469 0 4.457032.058594 6.679688.148438-1.003906.941406-1.832032 2.078124-2.382813 3.386718-.234375.558594-5.765625 13.839844-5.515625 30.882813.097656 6.703125 1.101563 14.535156 4.011719 22.589843-.84375.894532-1.523437 1.945313-2 3.109376-.566406 1.410156-5.5 14.25-3.203125 30.902343.90625 6.578125 3.046875 14.25 7.535156 22.058594-1.019531 1.550781-1.601562 3.382813-1.636718 5.300781-.011719.726563-.207032 18.0625 9.875 37.730469 8.363281 16.316406 25.496093 37.308594 60.222656 48.925781l-1.367188 2.980469-49.070312 10.277344c-4.632813.972656-7.953125 5.058593-7.953125 9.789062v92.917969c0 3.609375 1.945312 6.9375 5.089843 8.710938 1.523438.859374 3.21875 1.289062 4.910157 1.289062 1.792969 0 3.585937-.480469 5.175781-1.441406l87.246094-52.738282h52.203125c57.769531 0 104.769531-46.996093 104.769531-104.765624v-34.0625h10.84375c4.046875 0 7.691406-2.4375 9.242188-6.171876 1.542968-3.738281.6875-8.039062-2.171876-10.898437zm-177.546874-78.738281c5.207031-1.671875 8.105468-7.21875 6.503906-12.449219l-1.222656-3.996094c-4.746094-17.339843.007812-28.460937 5.695312-35.148437l.65625 4.152344c.183594 1.46875.421875 2.972656.722656 4.515624 1.03125 5.355469 6.171875 8.894532 11.546875 7.953126 5.375-.945313 9-6.023438 8.148438-11.414063l-.605469-3.808594c-1.265625-10.644531 1.683594-18.816406 8.957031-24.914062.75-.632813 1.519531-1.210938 2.289063-1.746094l-.070313 172.542969-50.28125-50.46875c-14.566406-25.382813-12.089843-45.378906-6.917969-58.214844l.628907 2.0625c.417969 1.5.890625 3.035156 1.414062 4.597656 1.742188 5.183594 7.324219 8.007813 12.535157 6.335938zm-32.960938-20.746094c-.648438 1.578125-1.273438 3.214844-1.847656 4.953125-2.613282 7.871094-4.527344 18.09375-3.570313 30.175781l-54.953125-55.15625c21.214844 2.75 41.71875 9.53125 60.371094 20.027344zm172.589844 150.613281c0 46.742188-38.027344 84.769531-84.769532 84.769531h-54.988281c-1.824219 0-3.613281.5-5.171875 1.441407l-74.460937 45.007812v-67.066406l46.066406-9.644531c3.109375-.652344 5.726563-2.742188 7.046875-5.632813l8.335938-18.234375c2.292968-5.023437.082031-10.957031-4.941407-13.25-1.074219-.492187-2.195312-.777344-3.308593-.875-40.835938-10.554687-55.988282-34.847656-61.605469-51.8125l7.988281 4.15625c1.65625.917969 3.382812 1.816406 5.179688 2.691406 4.921874 2.394532 10.851562.390626 13.308593-4.496093 2.460938-4.886719.535157-10.84375-4.316406-13.367188l-4.730469-2.460937c-15.527344-8.671875-24.503906-20.164063-26.703125-34.222656-.441406-2.808594-.570312-5.488282-.511719-7.945313l8.171876 5.828125c1.382812 1.054688 2.835937 2.09375 4.363281 3.105469 4.546875 3.019531 10.671875 1.835937 13.769531-2.660157 3.09375-4.492187 2.011719-10.640624-2.429688-13.808593l-3.65625-2.609375c-17.289062-13.339844-19.453124-31.140625-18.191406-43.824219l131.128906 131.621094c6.3125 6.332031 16.035157 7.484375 23.648438 2.804687 19.300781-11.867187 31.289062-33.3125 31.289062-55.96875 0-13.644531 11.101563-24.746094 24.746094-24.746094 13.640625 0 24.742188 11.101563 24.742188 24.746094zm0 0" data-original="#000000" class="active-path" data-old_color="#000000" fill="#F0756F"/><path d="m449.296875 162.859375c-2.628906 0-5.207031 1.070313-7.066406 2.929687-1.859375 1.859376-2.933594 4.441407-2.933594 7.070313 0 2.632813 1.070313 5.199219 2.933594 7.070313 1.859375 1.859374 4.4375 2.929687 7.066406 2.929687 2.632813 0 5.210937-1.070313 7.070313-2.929687 1.859374-1.871094 2.929687-4.4375 2.929687-7.070313 0-2.628906-1.066406-5.210937-2.929687-7.070313-1.859376-1.859374-4.4375-2.929687-7.070313-2.929687zm0 0" data-original="#000000" class="active-path" data-old_color="#000000" fill="#F0756F"/><path d="m90.929688 233.929688c-1.859376 1.859374-2.929688 4.441406-2.929688 7.070312s1.070312 5.210938 2.929688 7.070312c1.859374 1.859376 4.441406 2.929688 7.070312 2.929688s5.210938-1.070312 7.070312-2.929688c1.859376-1.859374 2.929688-4.441406 2.929688-7.070312s-1.070312-5.210938-2.929688-7.070312c-1.859374-1.859376-4.441406-2.929688-7.070312-2.929688s-5.210938 1.070312-7.070312 2.929688zm0 0" data-original="#000000" class="active-path" data-old_color="#000000" fill="#F0756F"/><path d="m394 363.460938c-2.628906 0-5.210938 1.058593-7.070312 2.917968-1.859376 1.859375-2.929688 4.441406-2.929688 7.070313 0 2.640625 1.070312 5.210937 2.929688 7.082031 1.859374 1.855469 4.441406 2.929688 7.070312 2.929688s5.210938-1.070313 7.070312-2.929688c1.859376-1.871094 2.929688-4.441406 2.929688-7.082031 0-2.628907-1.070312-5.199219-2.929688-7.070313-1.859374-1.859375-4.441406-2.917968-7.070312-2.917968zm0 0" data-original="#000000" class="active-path" data-old_color="#000000" fill="#F0756F"/></g> </svg>
