<?xml version="1.0"?>
<svg xmlns="http://www.w3.org/2000/svg" height="512px" viewBox="-36 0 501 501.15546" width="512px"><g><path d="m212.78125 89.554688c21.242188-.019532 38.460938-17.226563 38.5-38.464844v-12.589844c0-21.261719-17.234375-38.5-38.5-38.5-21.261719 0-38.5 17.238281-38.5 38.5v12.589844c.039062 21.238281 17.257812 38.445312 38.5 38.464844zm-24.5-51.054688c.042969-13.515625 11.003906-24.457031 24.523438-24.46875h.003906c13.507812.015625 24.457031 10.960938 24.472656 24.46875v12.589844c0 13.527344-10.96875 24.5-24.5 24.5s-24.5-10.972656-24.5-24.5zm0 0" data-original="#000000" class="active-path" data-old_color="#000000" fill="#F0756F"/><path d="m24.414062 495.363281c.664063 3.804688 4.289063 6.351563 8.097657 5.6875l63.125-11.039062c3.804687-.667969 6.351562-4.292969 5.6875-8.101563l-1.308594-7.472656 15.050781-12.21875c5.914063-4.921875 13.511719-7.351562 21.183594-6.777344l102.933594 7.523438c.367187.023437.726562.019531 1.097656.019531 22.558594-.046875 44.523438-7.238281 62.742188-20.542969.265624-.195312.519531-.410156.757812-.640625l122.601562-120.050781c2.644532-2.589844 2.816407-6.792969.386719-9.589844-13.890625-16.035156-37.929687-18.324218-54.601562-5.199218l-56.875 42.527343c-11.503907-14.398437-29.945313-21.382812-48.101563-18.21875l-7.214844 1.261719 2.890626-92.121094c3.648437 1.976563 7.730468 3.011719 11.878906 3.007813 13.484375-.003907 24.441406-10.890625 24.535156-24.378907v-86.378906c1.890625-21.6875-14.023438-40.859375-35.691406-43-1.324219-.132812-2.832032-.070312-4.160156-.070312h-16.574219c-1.761719-.046875-3.476563.585937-4.789063 1.765625l-24.019531 22.476562-23.085937-22.351562c-1.316407-1.246094-3.066407-1.921875-4.878907-1.886719h-17.585937c-10.507813-.089844-20.609375 4.042969-28.042969 11.46875s-11.574219 17.523438-11.496094 28.03125c0 1.207031.324219 2.359375.324219 3.566406v86.402344c0 13.421875 10.617188 24.53125 24.039062 24.53125h.011719l.269531-.09375c4.085938-.0625 8.085938-1.179688 11.617188-3.234375l3.011719 96.050781c-31.34375-6.667968-64.011719 1.527344-88.492188 22.203125l-2.644531-15.125c-.664062-3.808593-4.289062-6.359375-8.097656-5.691406l-63.125 11.042969c-3.808594.664062-6.355469 4.292968-5.6875 8.101562zm196.867188-156.023437v-88.023438c0-3.863281-3.132812-7-7-7-3.863281 0-7 3.136719-7 7v90.394532c-8.3125 1.007812-16.742188.367187-24.808594-1.882813l-3.949218-122.234375h71.039062l-3.550781 117.191406zm-58-120.773438c0 5.914063-4.394531 10.777344-10.039062 10.839844-.011719 0 .148437 0 .140624 0-2.71875-.011719-5.316406-1.117188-7.214843-3.0625-1.898438-1.945312-2.9375-4.570312-2.886719-7.289062v-86.730469c0-.234375-.167969-.46875-.191406-.699219-.085938-.863281-.210938-1.734375-.210938-2.601562-.007812-6.777344 2.695313-13.277344 7.507813-18.054688 4.8125-4.773438 11.332031-7.429688 18.109375-7.375h14.742187l25.839844 25.007812c.042969.039063.089844.007813.132813.050782.097656.089844.199218.148437.300781.234375.078125.0625.15625.109375.238281.167969.105469.082031.214844.152343.324219.226562.082031.054688.167969.105469.253906.15625.109375.066406.222656.128906.335937.191406.089844.046875.183594.09375.277344.136719.109375.054687.222656.101563.332032.148437.113281.050782.203124.082032.300781.117188.101562.035156.226562.078125.335937.113281.113282.03125.210938.058594.316406.085938.105469.027343.222657.054687.335938.078125.113281.023437.214844.039062.320312.054687.109376.019531.230469.035157.347657.046875.113281.011719.210937.019532.320312.023438.105469.007812.234375.011718.351563.011718.117187.003907.210937 0 .316406 0 .121094 0 .238281-.011718.355469-.019531.101562-.011719.203125-.023437.308593-.035156.121094-.015625.242188-.035156.363282-.058594.097656-.015625.199218-.039062.296875-.0625.121093-.027343.238281-.058593.355469-.089843.101562-.03125.199218-.0625.300781-.09375.117187-.039063.230469-.082032.34375-.125.101562-.039063.199219-.082032.292969-.125.09375-.046876.21875-.101563.328124-.160157.109376-.054687.191407-.097656.289063-.15625.09375-.058593.199219-.121093.304687-.1875.105469-.066406.1875-.128906.28125-.195312.09375-.066407.195313-.140625.289063-.214844.09375-.078125.175781-.148437.261719-.222656.050781-.046875.105468.042969.160156-.007813l26.878906-25.097656h13.800782c.859374 0 1.726562-.085938 2.585937 0 14.128906 1.398438 24.472656 13.953125 23.136719 28.089844-.023438.234375.128906.40625.128906.640625v86.714843c0 5.800782-4.699219 10.5-10.5 10.5-5.796875 0-10.5-4.699218-10.5-10.5v-21.246093l.101562-3.144531c.015626-.484376-.101562-.957032-.101562-1.417969v-38.925781c0-3.863282-3.132812-7-7-7-3.863281 0-7 3.136718-7 7v43.300781l-.28125 5.988281h-71.914062l-.503907-9.589844c-.011719-.320312-.300781-.421875-.300781-.726562v-38.972656c0-3.863282-3.136719-7-7-7-3.867188 0-7 3.136718-7 7zm8.210938 132.949219 6.4375 1.832031c11.089843 3.144532 22.75 3.75 34.109374 1.78125l2.898438-.507812c.226562-.027344.445312-.066406.660156-.117188l54.007813-9.445312c17.167969-2.980469 34.046875 6.585937 40.3125 22.84375l-87.0625 15.226562c-3.808594.667969-6.355469 4.292969-5.691407 8.101563.667969 3.808593 4.292969 6.355469 8.101563 5.691406l94.617187-16.550781c3.808594-.667969 6.355469-4.292969 5.6875-8.101563-.640624-3.65625-1.6875-7.230469-3.113281-10.660156l58.164063-43.488281.140625-.113282c8.84375-7 21.210937-7.429687 30.519531-1.0625l-116.9375 114.300782c-15.753906 11.308594-34.667969 17.375-54.0625 17.347656h-.3125l-102.699219-7.3125c-11.265625-.8125-22.40625 2.777344-31.082031 10.015625l-8.929688 7.296875-14.652343-83.726562c23.105469-23.492188 57.21875-32.453126 88.886719-23.351563zm-106.980469 1.183594 21.816406 124.726562-49.332031 8.628907-21.8125-124.726563zm0 0" data-original="#000000" class="active-path" data-old_color="#000000" fill="#F0756F"/></g> </svg>
