<svg xmlns="http://www.w3.org/2000/svg" width="23.541" height="19.131" viewBox="0 0 23.541 19.131">
                                <defs>
                                </defs>
                                <g id="twitter" transform="translate(-25.103 -34.027)">
                                    <g id="Group_4" data-name="Group 4" transform="translate(25.103 34.028)">
                                        <path id="Path_8" d="M48.643 36.293a9.636 9.636 0 0 1-2.774.76 4.843 4.843 0 0 0 2.124-2.671 9.668 9.668 0 0 1-3.067 1.172 4.834 4.834 0 0 0-8.23 4.406 13.71 13.71 0 0 1-9.955-5.047 4.835 4.835 0 0 0 1.494 6.448 4.8 4.8 0 0 1-2.187-.6v.061a4.832 4.832 0 0 0 3.874 4.735 4.848 4.848 0 0 1-2.181.084 4.835 4.835 0 0 0 4.512 3.354 9.749 9.749 0 0 1-7.15 2 13.735 13.735 0 0 0 21.144-11.578c0-.209 0-.418-.014-.625a9.794 9.794 0 0 0 2.41-2.5z" class="cls-1" data-name="Path 8" transform="translate(-25.103 -34.028)"></path>
                                    </g>
                                </g>
                            </svg>