<svg xmlns="http://www.w3.org/2000/svg" width="23.136" height="22.107" viewBox="0 0 23.136 22.107">
                                <defs>
                                </defs>
                                <g id="linkedin" transform="translate(836.932 958.308)">
                                    <g id="Group_2" data-name="Group 2" transform="translate(-836.932 -958.309)">
                                        <path id="Path_6" d="M50.2 37.522v8.555h-4.96V38.1c0-2-.716-3.373-2.512-3.373a2.713 2.713 0 0 0-2.544 1.814 3.4 3.4 0 0 0-.164 1.209v8.331h-4.96s.067-13.518 0-14.917h4.961v2.114c-.01.017-.024.033-.033.049h.033v-.049a4.925 4.925 0 0 1 4.47-2.464c3.263 0 5.71 2.132 5.71 6.713zM29.875 23.969a2.585 2.585 0 1 0-.065 5.155h.032a2.586 2.586 0 1 0 .033-5.155zm-2.512 22.108h4.958V31.16h-4.958z" class="cls-1" data-name="Path 6" transform="translate(-27.068 -23.969)"></path>
                                    </g>
                                </g>
                            </svg>