<svg xmlns="http://www.w3.org/2000/svg" width="32.181" height="11.588" viewBox="0 0 32.181 11.588">
                                        <defs></defs>
                                        <path d="M-3.2 4.848a.582.582 0 0 0-.831 0 .586.586 0 0 0 0 .822l4.21 4.212h-29.6a.579.579 0 0 0-.581.582.585.585 0 0 0 .581.59h29.6l-4.211 4.2a.6.6 0 0 0 0 .831.582.582 0 0 0 .831 0l5.208-5.208a.572.572 0 0 0 0-.822z" class="" transform="rotate(180 1.09 8.131)"></path>
                                    </svg>