<svg xmlns="http://www.w3.org/2000/svg" width="23.098" height="23.098" viewBox="0 0 23.098 23.098">
                                <defs>
                                </defs>
                                <g id="instagram" transform="translate(10.241 -34.68)">
                                    <path d="M42.621 23.88H27.993a4.239 4.239 0 0 0-4.234 4.234v14.629a4.24 4.24 0 0 0 4.234 4.235h14.628a4.24 4.24 0 0 0 4.235-4.235V28.114a4.239 4.239 0 0 0-4.235-4.234zm-7.314 19.152a7.6 7.6 0 1 1 7.6-7.6 7.612 7.612 0 0 1-7.6 7.6zM43.156 29.4a1.8 1.8 0 1 1 1.8-1.8 1.8 1.8 0 0 1-1.8 1.8z" class="cls-1" data-name="Path 3" transform="translate(-34 10.799)"></path>
                                    <path d="M41.24 36.971a4.391 4.391 0 1 0 4.39 4.39 4.4 4.4 0 0 0-4.39-4.39z" class="cls-1" data-name="Path 4" transform="translate(-39.932 4.866)"></path>
                                </g>
                            </svg>